<svg xmlns="http://www.w3.org/2000/svg" version="1.1" xmlns:xlink="http://www.w3.org/1999/xlink" width="512" height="512" x="0" y="0" viewBox="0 0 512 512" style="enable-background:new 0 0 512 512" xml:space="preserve" class=""><g><path d="M256 463.939c-30.268 15.96-57.447 25.474-92.694 25.474-89.233 0-157.727-67.369-157.727-156.613 0-41.411 11.286-78.96 36.911-107.552 5.142-5.737 15.317-16.287 15.317-16.287a161.65 161.65 0 0 1 40.126-24.71c19.538-8.384 41.042-13.028 63.649-13.028 35.248 0 61.069 6.654 87.628 25.8-10.371 7.481-18.874 20.819-21.347 30.479-22.676 26.369-36.993 60.134-38.826 97.182-.133 2.687 10.654 23.747 10.654 23.747S219.944 424.183 256 463.939z" opacity="1" data-original="#5de1c4" class="" fill="#38bdf8"/><path d="M256 463.942c-26.558 19.141-59.174 30.432-94.416 30.432C72.35 494.374 0 422.034 0 332.79c0-49.861 22.592-94.447 58.102-124.096-23.406 28.031-37.499 64.118-37.499 103.492 0 89.245 72.35 161.584 161.584 161.584 24.055 0 46.894-5.264 67.405-14.701 1.12.899 4.253-2.152 5.399-1.285.995.752 0 5.426 1.009 6.158zM256 201.658a162.606 162.606 0 0 0-28.138 25.845c-28.958-27.475-68.092-44.326-111.164-44.326-6.356 0-12.606.364-18.767 1.075 0 0 .27-.668.45-.746 19.397-8.346 41.292-18.139 63.695-18.139 35.245-.001 78.91 14.027 93.924 36.291z" opacity="1" data-original="#09d6b4" class="" fill="#0ea5e9"/><path fill="#ef4444" d="M512 332.795c0 89.244-72.349 161.582-161.582 161.582-35.245 0-67.857-11.285-94.416-30.441 0 0-8.117-8.284-12.584-12.333-32.617-29.563-48.777-117.754-48.638-120.444 12.009 5.817 23.059 7.186 32.548 6.424a162.336 162.336 0 0 0 32.099 3.193c86.512 0 157.157-67.999 161.378-153.461 4.957 2.403 9.304 13.771 13.963 16.649 5.385 3.327 15.967 2.162 15.967 2.162C488.059 235.725 512 281.464 512 332.795z" opacity="1" data-original="#fe7c66" class=""/><path fill="#dc2626" d="M255.979 463.921c-40.672-29.34-67.147-77.14-67.147-131.132 0-2.72.072-5.419.206-8.108a160.001 160.001 0 0 0 38.291 12.902c-8.262 43.309 1.289 89.345 28.65 126.338zM450.736 206.127c-14.587 62.017-64.519 110.083-127.659 121.621 0 0 .678-1.876 1.287-2.151 35.764-16.159 55.851-51.344 72.332-87.111 8.401-18.232 24.112-51.169 24.112-51.169a160.808 160.808 0 0 1 29.928 18.81z" opacity="1" data-original="#fe6c55" class=""/><path fill="#facc15" d="M421.01 179.205c0 2.721-.064 5.421-.203 8.11-3.118 63.135-42.49 116.745-97.729 140.433-1.586-51.907-27.673-97.643-67.067-126.077l-.011-.01c-26.559-19.145-59.171-30.437-94.418-30.437-22.606 0-44.118 4.639-63.649 13.028a131.911 131.911 0 0 1-.086-5.046c0-89.244 72.338-161.582 161.582-161.582 89.232 0 161.581 72.338 161.581 161.581z" opacity="1" data-original="#fee45a" class=""/><path fill="#eab308" d="M299.903 108.768h-56.868a7.726 7.726 0 1 1 0-15.452h56.868a7.725 7.725 0 0 1 7.726 7.726 7.725 7.725 0 0 1-7.726 7.726zM322.348 144.824H220.591a7.726 7.726 0 1 1 0-15.452h101.758a7.727 7.727 0 0 1-.001 15.452z" opacity="1" data-original="#ffd15b" class=""/><path d="M124.935 324.558H68.066a7.726 7.726 0 1 1 0-15.452h56.868a7.725 7.725 0 0 1 7.726 7.726 7.724 7.724 0 0 1-7.725 7.726zM147.379 360.615H45.622a7.726 7.726 0 1 1 0-15.452H147.38a7.727 7.727 0 0 1-.001 15.452z" opacity="1" data-original="#09d6b4" class="" fill="#0ea5e9"/><path fill="#dc2626" d="M418.303 370.528h-56.868a7.726 7.726 0 1 1 0-15.452h56.868a7.726 7.726 0 1 1 0 15.452zM440.747 406.585H338.99a7.726 7.726 0 1 1 0-15.452h101.758a7.727 7.727 0 0 1-.001 15.452z" opacity="1" data-original="#fe6c55" class=""/></g></svg>
